<?xml version="1.0" encoding="UTF-8"?>
<svg width="40px" height="41px" viewBox="0 0 40 41" version="1.1" xmlns="http://www.w3.org/2000/svg" xmlns:xlink="http://www.w3.org/1999/xlink">
    <!-- Generator: Sketch 58 (84663) - https://sketch.com -->
    <title>Fill 1</title>
    <desc>Created with Sketch.</desc>
    <g id="Page-1" stroke="none" stroke-width="1" fill="none" fill-rule="evenodd">
        <g id="Layout_Desktop-1440px-Copy" transform="translate(-810.000000, -3643.000000)" fill="#054343">
            <g id="Group-4" transform="translate(736.000000, 3643.500000)">
                <path d="M98.1782292,15.4252604 L104.995833,15.4252604 L104.995833,13.7657812 L98.1782292,13.7657812 L98.1782292,15.4252604 Z M87.4960417,15.5021875 C87.8241146,15.5021875 88.1431771,15.5255208 88.4486979,15.5850521 C88.7586979,15.63875 89.0266667,15.7371875 89.2635417,15.8801563 C89.5017188,16.0180208 89.6913021,16.2141667 89.834375,16.4652083 C89.9721875,16.7164063 90.0401563,17.04 90.0401563,17.4309375 C90.0401563,18.1363021 89.834375,18.6495833 89.4084896,18.9609375 C88.978125,19.2767188 88.4344792,19.4321354 87.7788542,19.4321354 L84.0307813,19.4321354 L84.0307813,15.5021875 L87.4960417,15.5021875 Z M103.533854,20.136875 C103.135781,19.6973958 102.463333,19.4593229 101.642031,19.4593229 C101.107448,19.4593229 100.665417,19.5492188 100.310677,19.7323438 C99.9638542,19.9135938 99.6803646,20.1381771 99.4634896,20.4034896 C99.2473438,20.6728125 99.1010938,20.9576042 99.015,21.2617188 C98.9295833,21.558125 98.8778125,21.8267188 98.8629688,22.0643229 L104.304688,22.0643229 C104.225052,21.21125 103.933229,20.5802604 103.533854,20.136875 L103.533854,20.136875 Z M88.0570833,21.9601042 C88.8538021,21.9601042 89.5017188,22.1432813 89.9883854,22.5121875 C90.473125,22.885625 90.7178125,23.5017188 90.7178125,24.3683333 C90.7178125,24.8103646 90.6459375,25.1767188 90.4964063,25.4589063 C90.3476042,25.7423438 90.1417708,25.9663542 89.8945313,26.129375 C89.6459896,26.2989583 89.3528125,26.4141146 89.0215104,26.4859896 C88.6952083,26.5591667 88.3483333,26.5915104 87.9840104,26.5915104 L84.0307813,26.5915104 L84.0307813,21.9601042 L88.0570833,21.9601042 Z M88.4790625,29.4560938 C89.2338021,29.4560938 89.9696354,29.3609375 90.6782812,29.1731771 C91.3954167,28.9849479 92.0342187,28.6948958 92.5915104,28.3007813 C93.1442187,27.9098438 93.5927604,27.403125 93.9220833,26.7779167 C94.2489583,26.1598438 94.4120312,25.4258854 94.4120312,24.5729167 C94.4120312,23.5204688 94.1615625,22.6234375 93.6509375,21.8733854 C93.1428646,21.1284375 92.3753125,20.6048438 91.3417187,20.3070833 C92.1008854,19.9472396 92.6697396,19.4845313 93.0568229,18.9201563 C93.441875,18.3544271 93.6334375,17.6470313 93.6334375,16.8005208 C93.6334375,16.0180208 93.5046875,15.3559375 93.2490625,14.8271875 C92.98625,14.290625 92.6192708,13.8647917 92.1507292,13.544375 C91.674375,13.2240625 91.1119271,12.9904167 90.4518229,12.850625 C89.7883333,12.70625 89.0622396,12.6370312 88.2577604,12.6370312 L80.328125,12.6370312 L80.328125,29.4560938 L88.4790625,29.4560938 Z M107.650781,24.1722396 C107.713542,23.2272917 107.636458,22.3251042 107.417708,21.4610938 C107.197031,20.5957813 106.843073,19.8242708 106.34724,19.1499479 C105.850833,18.4742188 105.218542,17.9344271 104.448333,17.5357813 C103.674271,17.131875 102.77276,16.9338021 101.742344,16.9338021 C100.809063,16.9338021 99.9664063,17.0995313 99.2020313,17.4290104 C98.4383854,17.7603125 97.7827604,18.2133333 97.229375,18.7873958 C96.6772396,19.3582813 96.2566146,20.0391667 95.95375,20.828125 C95.6560417,21.6144271 95.5039063,22.4648958 95.5039063,23.3755729 C95.5039063,24.3171875 95.6501563,25.1864063 95.9407813,25.9714583 C96.2345833,26.7604688 96.646875,27.4322396 97.1776042,28.0004688 C97.7226042,28.5667708 98.3697396,29.0004688 99.1444271,29.3104688 C99.9198438,29.6159375 100.783177,29.77125 101.742344,29.77125 C103.11901,29.77125 104.299531,29.4560938 105.268385,28.82375 C106.248906,28.1933854 106.966667,27.1468229 107.440417,25.6808333 L104.494271,25.6808333 C104.380417,26.0576042 104.08526,26.420625 103.600521,26.7604688 C103.11125,27.1008854 102.52875,27.2710938 101.854375,27.2710938 C100.915833,27.2710938 100.191667,27.0251563 99.6900521,26.5358333 C99.1878125,26.0465625 98.8629688,25.1353125 98.8629688,24.1722396 L107.650781,24.1722396 Z M114,20 C114,31.0382813 105.038281,40 94,40 C82.9617188,40 74,31.0382813 74,20 C74,8.96171875 82.9617188,0 94,0 C105.038281,0 114,8.96171875 114,20 Z" id="Fill-1"></path>
            </g>
        </g>
    </g>
</svg>