<?xml version="1.0" encoding="UTF-8"?>
<svg width="40px" height="41px" viewBox="0 0 40 41" version="1.1" xmlns="http://www.w3.org/2000/svg" xmlns:xlink="http://www.w3.org/1999/xlink">
    <!-- Generator: Sketch 58 (84663) - https://sketch.com -->
    <title>Group 3</title>
    <desc>Created with Sketch.</desc>
    <defs>
        <polygon id="path-1" points="0 1.04166667e-05 40 1.04166667e-05 40 40 0 40"></polygon>
    </defs>
    <g id="Page-1" stroke="none" stroke-width="1" fill="none" fill-rule="evenodd">
        <g id="Layout_Desktop-1440px-Copy" transform="translate(-884.000000, -3643.000000)">
            <g id="Group-4" transform="translate(736.000000, 3643.500000)">
                <g id="Group-3" transform="translate(148.000000, 0.000000)">
                    <mask id="mask-2" fill="white">
                        <use xlink:href="#path-1"></use>
                    </mask>
                    <g id="Clip-2"></g>
                    <path d="M11.1859375,8.08985417 C9.409375,8.08985417 8.24864583,9.25782292 8.24864583,10.7886563 C8.24864583,12.28725 9.3740625,13.4874062 11.1171875,13.4874062 L11.1506771,13.4874062 C12.96125,13.4874062 14.0882292,12.28725 14.0882292,10.7886563 C14.0546354,9.25782292 12.9613021,8.08985417 11.1859375,8.08985417 L11.1859375,8.08985417 Z M32.4674479,31.2399063 L32.4674479,22.2832396 C32.4674479,17.4856354 29.9059375,15.2538125 26.4901563,15.2538125 C23.7358333,15.2538125 22.5020833,16.7686042 21.8113021,17.8325104 L21.8113021,15.6211042 L16.6201563,15.6211042 C16.6890104,17.0864688 16.6201563,31.2399063 16.6201563,31.2399063 L21.81125,31.2399063 L21.81125,22.5173021 C21.81125,22.050375 21.8448438,21.5836563 21.9823958,21.2500104 C22.3570313,20.3175625 23.211875,19.3516771 24.6460938,19.3516771 C26.52375,19.3516771 27.2759896,20.7844375 27.2759896,22.8831875 L27.2759896,31.2399063 L32.4674479,31.2399063 Z M8.55458333,31.2399583 L13.7470833,31.2399583 L13.7470833,15.6211042 L8.55458333,15.6211042 L8.55458333,31.2399583 Z M20,1.04166667e-05 C31.0382813,1.04166667e-05 40,8.96172917 40,20.0000104 C40,31.0382396 31.0382813,40.0000104 20,40.0000104 C8.96171875,40.0000104 0,31.0382396 0,20.0000104 C0,8.96172917 8.96171875,1.04166667e-05 20,1.04166667e-05 L20,1.04166667e-05 Z" id="Fill-1" fill="#054343" mask="url(#mask-2)"></path>
                </g>
            </g>
        </g>
    </g>
</svg>