<?xml version="1.0" encoding="UTF-8"?>
<svg width="98px" height="17px" viewBox="0 0 98 17" version="1.1" xmlns="http://www.w3.org/2000/svg" xmlns:xlink="http://www.w3.org/1999/xlink">
    <!-- Generator: Sketch 58 (84663) - https://sketch.com -->
    <title>Group 3</title>
    <desc>Created with Sketch.</desc>
    <defs>
        <polygon id="path-1" points="0.000147569993 0.00046542256 97.329 0.00046542256 97.329 16.5228 0.000147569993 16.5228"></polygon>
    </defs>
    <g id="Page-1" stroke="none" stroke-width="1" fill="none" fill-rule="evenodd">
        <g id="Layout_Desktop-1440px-Copy" transform="translate(-199.000000, -31.000000)">
            <g id="Group-3" transform="translate(199.000000, 31.500000)">
                <mask id="mask-2" fill="white">
                    <use xlink:href="#path-1"></use>
                </mask>
                <g id="Clip-2"></g>
                <path d="M96.2549,3.9429 C89.1749,2.3189 82.0279,1.0099 74.8319,0.0189 C72.9649,-0.2391 72.1479,2.2859 74.0339,2.9109 C76.9939,3.8919 79.9539,4.8729 82.9149,5.8529 C83.4259,8.0579 83.1309,10.3549 82.0569,12.3159 C80.6469,10.2739 78.8349,8.5359 76.1959,8.3269 C74.6899,8.2079 73.1849,8.6209 71.7419,9.0099 C70.5969,9.3189 68.9309,9.9669 67.8089,9.2829 C66.5409,8.5099 66.1819,6.9569 64.6089,6.4959 C62.7349,5.9479 60.4589,7.2589 58.7529,7.8809 C56.7409,8.6139 54.7309,9.3489 52.7179,10.0799 C51.2949,10.5959 49.6499,11.3069 48.2959,10.2639 C47.2259,9.4389 46.5669,8.1269 45.8239,7.0269 C44.9409,5.7179 43.9699,4.5059 42.6069,3.6699 C41.9549,3.2709 40.9029,3.4889 40.5549,4.2089 C39.9059,5.5439 39.2589,6.8799 38.6099,8.2149 C38.0419,9.3859 37.5639,10.7209 36.8109,11.7889 C36.2249,12.6189 36.0969,12.3859 35.7229,11.6129 C35.3149,10.7699 35.0319,9.8919 34.4279,9.1579 C32.9729,7.3899 30.6539,7.4059 28.6419,8.0949 C27.6049,8.4489 24.3899,10.3939 23.4339,9.0729 C23.0149,8.4949 22.4469,8.2399 21.7389,8.3839 C15.0479,9.7479 8.2719,10.5489 1.4469,10.7949 C-0.4771,10.8639 -0.4871,13.8649 1.4469,13.7949 C8.2389,13.5499 14.9989,12.7479 21.6669,11.4359 C23.2339,12.6969 25.3959,12.5909 27.3379,11.8529 C28.4999,11.4109 29.6809,10.6759 30.9569,10.6339 C32.2419,10.5929 32.5149,11.7459 32.9559,12.7349 C33.9379,14.9309 36.2659,16.3669 38.3929,14.4959 C39.4889,13.5309 40.0379,12.1269 40.6609,10.8419 C41.2279,9.6759 41.7929,8.5089 42.3589,7.3419 C43.6089,8.7189 44.4049,10.5859 45.6819,11.9179 C46.5719,12.8469 47.6829,13.5189 48.9589,13.7349 C50.8699,14.0569 52.6849,13.2749 54.4429,12.6339 C56.3779,11.9289 58.3129,11.2249 60.2469,10.5199 C61.1989,10.1729 62.1839,9.7019 63.1729,9.4739 C64.0639,9.2679 64.3149,9.8669 64.8209,10.5069 C66.8529,13.0679 69.7119,12.6659 72.5399,11.9029 C74.0379,11.4979 75.7699,10.9119 77.2549,11.6609 C78.8629,12.4719 79.8229,14.2789 80.6769,15.7829 C81.1329,16.5879 82.3879,16.8069 83.0319,16.0869 C85.5239,13.2989 86.6239,9.5969 86.0139,5.9009 C85.9589,5.5719 85.9019,5.1989 85.8099,4.8349 C89.0369,5.4409 92.2549,6.1009 95.4579,6.8359 C97.3369,7.2669 98.1399,4.3749 96.2549,3.9429" id="Fill-1" fill="#ECEFF2" mask="url(#mask-2)"></path>
            </g>
        </g>
    </g>
</svg>